<svg xmlns="http://www.w3.org/2000/svg" data-name="Layer 1" width="76" height="36" style=""><rect id="backgroundrect" width="100%" height="100%" x="0" y="0" fill="none" stroke="none"/><title>itijuana-logo-bn</title><g class="currentLayer" style=""><title>Layer 1</title><path d="M36.28,26.6a18.7,18.7,0,0,1-1.91.4,15.91,15.91,0,0,1-2.44.18,5.9,5.9,0,0,1-2.17-.35,3.23,3.23,0,0,1-1.36-1,3.74,3.74,0,0,1-.72-1.5,7.73,7.73,0,0,1-.22-1.92V16.74h2.9v5.34a4.18,4.18,0,0,0,.36,2,1.47,1.47,0,0,0,1.38.63l.66,0,.62-.07V16.74h2.9Z" id="svg_1" class="" fill="#ffffff" fill-opacity="1"/><path d="M42.08,16.47a6.52,6.52,0,0,1,2.13.29,3.27,3.27,0,0,1,1.37.83,3.17,3.17,0,0,1,.73,1.32,6.67,6.67,0,0,1,.21,1.73v6c-.41.09-1,.19-1.72.32a17,17,0,0,1-2.68.18,9,9,0,0,1-1.8-.17,4,4,0,0,1-1.39-.58,2.69,2.69,0,0,1-.89-1,3.56,3.56,0,0,1-.31-1.58,3,3,0,0,1,.36-1.51,2.84,2.84,0,0,1,1-1,4.22,4.22,0,0,1,1.38-.53A7.71,7.71,0,0,1,42,20.6a9.66,9.66,0,0,1,1,0,3.49,3.49,0,0,1,.71.13V20.5a1.59,1.59,0,0,0-.45-1.18,2.14,2.14,0,0,0-1.55-.45,10.14,10.14,0,0,0-1.46.11,6.09,6.09,0,0,0-1.24.3L38.68,17l.63-.16.83-.16.94-.11A8.27,8.27,0,0,1,42.08,16.47Zm.23,8.46.82,0a4.32,4.32,0,0,0,.62-.06V22.66a5.2,5.2,0,0,0-.53-.08c-.23,0-.44,0-.64,0a6.06,6.06,0,0,0-.76.05,1.72,1.72,0,0,0-.63.19,1,1,0,0,0-.43.36,1.08,1.08,0,0,0-.16.59,1,1,0,0,0,.46.94A2.56,2.56,0,0,0,42.31,24.93Z" id="svg_2" class="" fill="#ffffff" fill-opacity="1"/><path d="M48.56,17.09a16.4,16.4,0,0,1,4.35-.58,5.83,5.83,0,0,1,2.16.34,3.09,3.09,0,0,1,1.37,1,3.62,3.62,0,0,1,.72,1.47,8,8,0,0,1,.21,1.9V27H54.48V21.53a3.86,3.86,0,0,0-.37-2A1.51,1.51,0,0,0,52.73,19l-.66,0-.62.07V27H48.56Z" id="svg_3" class="" fill="#ffffff" fill-opacity="1"/><path d="M63.08,16.47a6.48,6.48,0,0,1,2.13.29,3.27,3.27,0,0,1,1.37.83,3.06,3.06,0,0,1,.73,1.32,6.67,6.67,0,0,1,.21,1.73v6c-.41.09-1,.19-1.72.32a17,17,0,0,1-2.68.18,9,9,0,0,1-1.8-.17,3.83,3.83,0,0,1-1.38-.58,2.63,2.63,0,0,1-.9-1,3.71,3.71,0,0,1-.31-1.58,3,3,0,0,1,.36-1.51,2.84,2.84,0,0,1,1-1,4.22,4.22,0,0,1,1.38-.53A7.71,7.71,0,0,1,63,20.6a9.66,9.66,0,0,1,1,0,3.49,3.49,0,0,1,.71.13V20.5a1.59,1.59,0,0,0-.45-1.18,2.14,2.14,0,0,0-1.55-.45,10.14,10.14,0,0,0-1.46.11,6.09,6.09,0,0,0-1.24.3L59.68,17l.63-.16.83-.16.94-.11A8.27,8.27,0,0,1,63.08,16.47Zm.23,8.46.82,0a4.32,4.32,0,0,0,.62-.06V22.66a5.2,5.2,0,0,0-.53-.08c-.23,0-.44,0-.64,0a6.06,6.06,0,0,0-.76.05,1.72,1.72,0,0,0-.63.19,1.09,1.09,0,0,0-.43.36,1.08,1.08,0,0,0-.16.59,1,1,0,0,0,.46.94A2.56,2.56,0,0,0,63.31,24.93Z" id="svg_4" class="" fill="#ffffff" fill-opacity="1"/><path d="M71.87,25.61a1.42,1.42,0,0,1-.48,1.16,1.7,1.7,0,0,1-2.19,0,1.4,1.4,0,0,1-.49-1.16,1.42,1.42,0,0,1,.49-1.17,1.7,1.7,0,0,1,2.19,0A1.45,1.45,0,0,1,71.87,25.61Z" id="svg_5" class="" fill="#ffffff" fill-opacity="1"/><path d="M19.82,14h-10a.35.35,0,0,0-.35.35V17a.35.35,0,0,0,.35.34H13v9.17a.4.4,0,0,0,.4.4h2.91a.4.4,0,0,0,.4-.4V17.38h3.14a.34.34,0,0,0,.34-.34V14.39A.34.34,0,0,0,19.82,14Z" id="svg_6" class="" fill="#ffffff" fill-opacity="1"/><path d="M8.41,23.6h-.5V14.44a.4.4,0,0,0-.4-.4H4.6a.4.4,0,0,0-.4.4V26.55a.4.4,0,0,0,.4.4H8.41a.43.43,0,0,0,.43-.43V24A.43.43,0,0,0,8.41,23.6Z" id="svg_7" class="" fill="#ffffff" fill-opacity="1"/><path d="M25.06,14H22.15a.4.4,0,0,0-.4.4v8.22a1.27,1.27,0,0,1-.22.61l-.08.09-.06.05a1.05,1.05,0,0,1-.86,0v3.07A.42.42,0,0,0,21,27h1.2a3.24,3.24,0,0,0,3.31-3.35V14.44A.4.4,0,0,0,25.06,14Z" id="svg_8" class="" fill="#ffffff" fill-opacity="1"/><path d="M23.6,12.38c-1.24,0-1.85-.58-1.85-1.74s.61-1.75,1.85-1.75,1.86.58,1.86,1.75S24.84,12.38,23.6,12.38Z" id="svg_9" class="" fill="#ffffff" fill-opacity="1"/><path d="M6,12.38q-1.86,0-1.86-1.74c0-1.17.62-1.75,1.86-1.75s1.85.58,1.85,1.75S7.22,12.38,6,12.38Z" id="svg_10" class="" fill="#ffffff" fill-opacity="1"/></g></svg>